<?xml version="1.0" standalone="no"?>
<!DOCTYPE svg PUBLIC "-//W3C//DTD SVG 20010904//EN"
 "http://www.w3.org/TR/2001/REC-SVG-20010904/DTD/svg10.dtd">
<svg version="1.0" xmlns="http://www.w3.org/2000/svg"
 width="728.000000pt" height="728.000000pt" viewBox="0 0 728.000000 728.000000"
 preserveAspectRatio="xMidYMid meet">
<metadata>
Created by potrace 1.14, written by Peter Selinger 2001-2017
</metadata>
<g transform="translate(0.000000,728.000000) scale(0.100000,-0.100000)"
fill="#000000" stroke="none">
<path d="M3359 7266 c-2 -3 -42 -7 -89 -11 -47 -4 -87 -8 -90 -10 -4 -2 -28
-6 -56 -9 -27 -4 -72 -11 -100 -16 -28 -6 -68 -12 -90 -14 -21 -2 -46 -6 -54
-9 -8 -4 -26 -9 -40 -11 -14 -3 -35 -7 -47 -10 -13 -4 -33 -8 -45 -11 -13 -2
-35 -7 -50 -11 -16 -3 -28 -10 -28 -15 0 -6 -4 -8 -8 -5 -5 3 -69 -15 -143
-40 -159 -54 -158 -53 -164 -54 -3 0 -28 -12 -57 -25 -28 -13 -55 -22 -60 -19
-4 3 -8 1 -8 -4 0 -7 -60 -38 -90 -46 -44 -13 -98 -41 -93 -49 3 -5 2 -7 -4
-4 -5 3 -28 -5 -51 -18 -23 -13 -42 -19 -42 -13 0 6 -8 2 -17 -9 -17 -18 -97
-66 -183 -110 -19 -10 -41 -24 -48 -30 -7 -7 -18 -13 -23 -13 -6 0 -8 -4 -5
-9 3 -5 -6 -12 -20 -15 -14 -4 -37 -18 -50 -31 -13 -13 -24 -22 -24 -19 0 2
-18 -8 -40 -22 -22 -15 -40 -31 -40 -36 0 -5 -4 -7 -9 -4 -4 3 -26 -11 -47
-32 -21 -20 -39 -36 -41 -34 -7 5 -24 1 -20 -5 2 -5 -4 -16 -15 -25 -10 -10
-18 -16 -18 -13 0 3 -13 -8 -29 -24 -16 -16 -32 -27 -35 -24 -3 4 -6 1 -6 -6
0 -7 -4 -9 -10 -6 -5 3 -10 0 -11 -7 0 -7 -20 -29 -44 -48 -24 -19 -44 -41
-44 -47 -1 -7 -5 -13 -10 -13 -12 0 -91 -78 -91 -90 0 -5 -4 -10 -9 -10 -8 0
-81 -67 -81 -74 0 -2 -26 -30 -57 -63 -32 -34 -78 -87 -103 -118 -25 -32 -55
-67 -67 -78 -13 -11 -23 -26 -23 -32 0 -7 -11 -24 -24 -38 -13 -14 -22 -28
-20 -30 3 -2 -12 -24 -31 -47 -20 -24 -43 -56 -50 -71 -8 -15 -28 -42 -45 -60
-16 -18 -27 -35 -25 -38 3 -2 0 -10 -6 -17 -21 -26 -142 -258 -143 -277 -1 -4
-8 -12 -16 -17 -8 -5 -11 -10 -6 -10 4 0 1 -11 -8 -25 -9 -13 -23 -46 -32 -72
-9 -26 -24 -59 -34 -73 -9 -14 -21 -38 -25 -55 -10 -38 -9 -34 -24 -70 -7 -16
-15 -41 -18 -55 -2 -13 -10 -28 -16 -32 -7 -4 -8 -8 -4 -8 4 0 3 -8 -2 -18 -6
-11 -12 -30 -15 -43 -2 -13 -11 -41 -20 -61 -9 -21 -17 -53 -18 -73 -2 -19 -6
-35 -10 -35 -9 0 -28 -92 -21 -104 3 -5 1 -6 -5 -2 -12 7 -14 2 -16 -39 -1
-11 -4 -24 -7 -30 -4 -5 -5 -18 -4 -27 2 -10 0 -18 -4 -18 -6 0 -12 -37 -14
-92 -1 -10 -5 -18 -9 -18 -5 0 -4 -10 3 -21 8 -15 8 -19 0 -15 -11 7 -13 -4
-15 -86 0 -21 -3 -38 -6 -38 -3 0 -7 -30 -9 -67 -4 -104 -5 -113 -12 -113 -8
0 -3 -554 6 -625 3 -27 8 -68 10 -90 2 -22 7 -56 10 -75 3 -19 7 -46 9 -60 2
-14 11 -59 20 -100 22 -94 38 -185 38 -210 0 -3 4 -12 9 -21 4 -9 10 -27 13
-40 2 -13 14 -48 25 -78 12 -30 27 -76 32 -102 6 -27 14 -49 18 -49 4 0 8 -6
9 -12 1 -26 12 -60 21 -72 12 -15 42 -116 34 -116 -4 0 1 -6 12 -13 10 -8 15
-19 11 -25 -3 -6 2 -15 11 -21 10 -6 15 -11 10 -11 -4 0 4 -22 18 -50 14 -27
25 -52 26 -55 0 -10 38 -91 46 -99 4 -4 9 -11 9 -14 6 -28 18 -52 26 -52 5 0
6 -4 3 -10 -3 -5 -1 -10 4 -10 6 0 11 -6 11 -14 0 -7 6 -19 13 -25 8 -6 20
-29 27 -51 7 -22 17 -40 22 -40 4 0 8 -6 8 -13 0 -7 9 -23 20 -35 11 -12 20
-26 20 -32 0 -5 3 -10 8 -10 4 0 23 -25 41 -55 19 -30 39 -55 43 -55 4 0 8 -5
8 -11 0 -13 69 -112 82 -117 4 -2 8 -10 8 -18 0 -8 7 -17 15 -20 8 -4 13 -9
10 -14 -2 -4 6 -16 18 -27 12 -11 38 -39 57 -63 19 -24 43 -50 53 -59 9 -8 17
-21 17 -28 0 -7 6 -13 13 -14 6 -1 44 -36 82 -79 39 -43 76 -78 83 -79 6 -1
12 -5 12 -9 0 -9 23 -33 96 -99 104 -96 124 -113 129 -113 6 0 24 -16 85 -71
16 -15 31 -24 34 -22 2 3 11 -4 18 -16 7 -12 21 -21 30 -21 10 0 18 -3 18 -8
0 -4 16 -16 35 -26 19 -10 33 -22 30 -25 -2 -4 11 -13 28 -21 18 -8 41 -22 51
-32 10 -9 22 -15 26 -13 5 3 10 -1 13 -8 2 -6 28 -23 56 -37 28 -14 51 -28 51
-32 0 -5 7 -8 15 -8 8 0 15 -4 15 -9 0 -5 15 -15 34 -21 19 -6 47 -20 61 -32
14 -11 29 -18 32 -14 3 3 11 2 17 -3 21 -18 126 -70 126 -63 0 4 4 1 9 -6 4
-7 14 -15 22 -16 41 -8 69 -19 69 -27 0 -5 3 -8 8 -7 10 3 48 -10 110 -38 28
-13 82 -33 120 -45 37 -11 76 -24 87 -29 11 -4 47 -16 80 -25 33 -9 74 -21 90
-27 17 -5 46 -12 65 -14 19 -3 39 -8 45 -13 5 -4 17 -7 25 -6 8 1 29 -3 45 -8
17 -5 44 -11 60 -13 17 -2 55 -9 85 -16 30 -6 66 -12 80 -13 14 -2 25 -3 25
-5 0 -1 20 -4 45 -6 25 -2 70 -6 100 -10 96 -11 620 -14 620 -4 0 6 5 10 11
10 5 0 7 -6 3 -12 -6 -10 -4 -10 7 -2 8 6 52 14 99 18 47 4 103 10 125 13 22
3 56 6 77 7 20 0 34 4 31 9 -2 4 8 7 24 8 44 1 71 7 234 50 142 37 188 48 214
53 6 1 16 5 22 9 7 5 23 10 35 12 12 3 25 10 30 17 4 7 8 10 8 6 0 -8 112 32
228 80 39 17 72 28 72 24 0 -4 5 1 11 11 6 9 14 15 20 12 5 -4 9 -1 9 4 0 6 3
10 8 9 4 -1 21 5 37 12 17 7 32 14 35 15 24 8 46 20 51 27 3 5 13 10 21 12 9
1 22 7 29 12 8 6 43 26 79 45 36 18 67 36 70 40 3 3 15 9 28 13 12 4 22 12 22
17 0 5 6 9 14 9 8 0 16 3 18 8 4 10 65 52 76 52 5 0 17 9 27 20 10 11 22 17
26 14 5 -3 9 0 9 5 0 6 6 11 14 11 8 0 24 12 35 26 12 15 21 24 21 20 0 -3 12
5 28 18 69 62 88 76 101 76 8 0 11 3 7 7 -3 4 2 12 12 17 11 6 41 30 67 53 26
24 50 43 54 43 4 0 14 11 21 25 7 14 17 25 21 25 4 0 64 57 133 128 69 70 138
139 153 154 15 16 25 28 22 28 -4 0 16 22 43 50 27 27 48 53 48 57 0 5 10 22
22 38 13 17 22 33 20 38 -1 4 6 7 15 7 9 0 14 3 10 6 -3 3 10 21 29 40 19 19
34 41 34 49 0 8 4 15 9 15 5 0 14 13 20 30 5 16 15 30 20 30 6 0 11 6 11 13 0
7 18 37 40 67 22 29 37 57 34 61 -3 5 0 9 5 9 6 0 11 6 11 14 0 7 7 19 15 26
9 7 13 15 11 17 -3 3 -1 10 5 17 24 28 59 88 59 100 0 7 9 25 20 39 11 14 20
32 20 40 0 9 7 23 16 31 8 9 13 16 9 16 -3 0 1 13 10 30 8 16 15 33 14 36 0 4
4 10 11 14 6 4 12 13 13 21 3 17 44 133 63 176 8 17 14 37 14 45 0 8 5 19 12
26 7 7 9 12 5 12 -4 0 4 29 17 64 14 35 22 67 19 70 -4 3 0 6 7 6 7 0 10 3 7
6 -3 4 -1 16 5 27 6 11 13 37 15 56 2 20 8 47 13 61 5 14 12 41 15 60 3 19 12
54 20 77 14 42 19 67 30 153 3 25 8 61 12 80 4 19 7 46 8 60 4 47 15 111 20
121 4 5 0 9 -7 9 -9 0 -10 2 -1 8 14 9 17 600 3 637 -6 17 -6 25 1 25 6 0 7 4
4 10 -9 15 -15 50 -17 107 -1 28 -6 49 -11 46 -5 -3 -5 2 1 12 6 11 6 25 1 34
-5 9 -15 54 -24 101 -8 47 -17 97 -20 113 -3 15 -7 39 -9 55 -3 15 -9 41 -15
59 -5 17 -7 34 -3 37 3 3 -1 6 -8 6 -7 0 -10 3 -7 7 4 3 2 12 -4 19 -6 8 -9
21 -5 29 3 8 1 15 -4 15 -6 0 -10 9 -10 21 0 11 -5 29 -11 40 -6 11 -12 28
-14 37 -2 9 -18 58 -35 107 -17 50 -34 99 -37 110 -2 11 -9 29 -14 40 -19 43
-32 80 -31 88 1 4 -3 7 -9 7 -5 0 -8 4 -5 9 3 4 -1 17 -9 27 -8 10 -15 27 -15
37 0 9 -5 17 -11 17 -5 0 -7 5 -4 10 3 6 1 10 -4 10 -6 0 -10 3 -9 8 3 8 -53
125 -63 132 -10 7 -33 62 -31 73 1 4 -3 7 -8 7 -6 0 -10 7 -10 15 0 8 -4 15
-10 15 -5 0 -10 8 -10 18 0 11 -9 27 -20 37 -11 10 -20 24 -20 32 0 7 -4 13
-9 13 -5 0 -12 11 -15 25 -4 14 -11 25 -17 25 -6 0 -8 4 -5 9 3 4 -8 23 -24
41 -17 19 -30 36 -30 40 0 3 -9 16 -20 28 -12 12 -18 22 -14 22 4 0 -5 12 -20
26 -14 15 -26 31 -26 36 0 5 -6 15 -12 22 -7 7 -24 28 -38 46 -23 30 -74 89
-115 131 -8 9 -15 20 -15 26 0 5 -10 18 -22 30 -13 11 -54 52 -91 91 -38 40
-73 72 -78 72 -5 0 -9 7 -9 16 0 8 -4 12 -10 9 -5 -3 -10 1 -10 9 0 9 -3 16
-7 16 -5 0 -40 31 -79 68 -39 37 -88 81 -109 97 -21 17 -44 36 -52 43 -7 7
-13 11 -13 8 0 -3 -10 5 -23 17 -44 42 -82 72 -132 104 -28 18 -59 40 -71 50
-19 17 -38 29 -89 57 -11 6 -22 13 -25 16 -3 3 -16 11 -29 18 -13 8 -40 23
-60 34 -20 11 -47 29 -60 39 -13 11 -30 19 -37 19 -8 0 -14 5 -14 12 0 6 -3 8
-6 5 -6 -6 -59 18 -74 33 -12 12 -51 30 -65 30 -8 0 -15 5 -15 10 0 6 -4 10
-9 10 -5 0 -26 8 -47 17 -22 9 -42 18 -46 19 -5 1 -10 3 -13 4 -3 1 -8 3 -12
5 -21 5 -49 19 -53 27 -3 4 -17 10 -30 12 -14 2 -26 5 -27 7 -2 1 -7 3 -13 4
-5 1 -12 4 -15 5 -3 1 -8 3 -12 5 -5 1 -21 7 -36 13 -16 7 -34 12 -41 12 -8 0
-19 7 -26 15 -7 8 -16 12 -22 9 -5 -3 -15 -1 -22 5 -7 6 -23 13 -37 15 -13 3
-25 5 -26 7 -2 1 -6 2 -10 4 -5 1 -15 4 -23 8 -20 7 -67 17 -112 24 -21 3 -36
9 -33 13 2 4 -7 8 -20 9 -14 1 -36 3 -50 4 -14 1 -25 5 -25 10 0 4 -15 7 -34
7 -19 0 -37 4 -40 8 -3 5 -22 9 -42 10 -21 1 -40 5 -43 9 -3 5 -24 9 -46 9
-22 1 -53 5 -70 8 -42 9 -125 20 -157 20 -16 0 -28 3 -28 7 0 6 -624 11 -631
5z"/>
</g>
</svg>
